PathFileType	4	(X/Y/Z)	D:\Long Term Storage\D'Arcy Smith\Coord7.trc
DataRate	CameraRate	NumFrames	NumMarkers	Units	OrigDataRate	OrigDataStartFrame	OrigNumFrames
120.00	120.00	      134	4	mm	120.00	2430	      4859
Frame#	Time	M1			M2			M3			M4			
		X1	Y1	Z1	X2	Y2	Z2	X3	Y3	Z3	X4	Y4	Z4	

2430	20.242	1073.38171	312.86060	576.87787	1579.34131	314.45468	506.76529							
2431	20.250	1073.02979	313.72998	579.07666	1577.37756	313.18506	490.71088							
2432	20.258	1072.84644	314.13278	579.96851	1575.05212	312.42267	473.75525							
2433	20.267	1072.85681	314.17587	579.55109	1572.52539	312.37509	456.97391							
2434	20.275	1072.98535	314.01135	578.14063	1570.47913	312.92834	441.70966							
2435	20.283	1073.17383	313.51245	575.98816	1568.22913	314.61740	425.90543							
2436	20.292	1073.58142	312.91882	572.38672	1566.27771	316.71680	411.44055							
2437	20.300	1073.88782	312.35175	568.47406	1563.63037	319.19122	396.71857							
2438	20.308	1074.39392	311.64279	563.60962	1561.79834	322.18976	383.29782							
2439	20.317	1075.02258	311.20892	558.06366	1560.04651	325.57709	371.05243							
2440	20.325	1075.83044	310.96298	550.94873	1557.89063	329.16708	359.14801							
2441	20.333	1076.62024	310.86673	543.85156	1556.12109	333.03021	348.22064							
2442	20.342	1077.88452	310.88898	535.07428	1554.04260	336.92432	337.78387							
2443	20.350	1079.01440	311.09027	525.09167	1551.80188	340.62131	327.86581							
2444	20.358	1080.48413	311.51868	514.57922	1550.35498	344.43796	319.49347							
2445	20.367	1081.91223	312.42950	502.65094	1548.46802	347.85587	311.99536							
2446	20.375	1083.70825	313.70099	490.54672	1546.31177	351.14807	303.56735							
2447	20.383	1085.72498	315.32623	476.30011	1544.25476	354.34494	296.82352							
2448	20.392	1087.98083	317.50497	462.45676	1542.03467	357.19409	290.39923							
2449	20.400	1090.60803	320.54590	445.86670	1540.42065	359.79398	285.86075							
2450	20.408	1093.22571	323.38522	432.66260	1538.62061	361.87637	281.44907							
2451	20.417	1096.22595	327.30804	416.72739	1536.71875	363.41321	278.06439							
2452	20.425	1099.65112	331.88889	401.15799	1535.30750	364.43997	276.25916							
2453	20.433	1103.37573	336.22275	384.41599	1533.54309	364.82318	275.02997							
2454	20.442	1107.01917	341.89883	368.95828	1532.26355	364.57541	274.70398							
2455	20.450	1110.53552	347.98309	354.11905	1532.12280	363.31641	276.75369							
2456	20.458	1113.76025	354.28525	340.37842	1531.16309	361.65448	278.83881							
2457	20.467	1118.51831	360.88168	326.02176	1530.58728	359.29770	282.37354							
2458	20.475	1122.21338	368.06689	312.96597	1529.57861	356.61731	286.35400							
2459	20.483	1125.64307	375.47540	300.96790	1529.87219	352.93994	292.92117							
2460	20.492	1130.18604	383.17487	287.96622	1530.18066	349.26913	299.40866							
2461	20.500	1132.47461	390.16235	278.98859	1532.31567	344.57898	309.76367							
2462	20.508	1135.20520	397.09064	269.99509	1533.82300	339.56122	319.99368							
2463	20.517	1138.61450	404.41205	260.86398	1535.48157	334.33475	330.79108							
2464	20.525	1141.70166	411.83014	251.66010	1536.63562	329.28271	341.24496							
2465	20.533	1143.00330	417.05609	246.36821	1539.20044	324.83905	353.78574							
2466	20.542	1144.31543	422.07196	242.18237	1542.04492	319.96628	367.45908							
2467	20.550	1144.57703	425.69904	239.49496	1545.38855	316.62030	380.73117							
2468	20.558	1144.84668	428.82632	237.73282	1548.98633	312.86539	395.41531							
2469	20.567	1144.85046	431.33719	236.60826	1552.89771	310.00266	410.59558							
2470	20.575	1144.26575	433.06613	236.35907	1557.31860	307.60382	425.59833							
2471	20.583	1143.56714	434.18661	236.69632	1561.86572	305.47537	441.41461							
2472	20.592	1142.82104	434.74591	237.36815	1566.89392	304.34906	456.47531							
2473	20.600	1141.62097	434.61249	238.47687	1572.09766	303.64053	471.68579							
2474	20.608	1140.32715	433.92709	239.95120	1578.09265	303.25348	486.81784							
2475	20.617	1139.37000	432.87427	241.61453	1583.06470	304.19498	500.29044							
2476	20.625	1137.91650	430.96173	243.58536	1589.11951	305.95474	514.95398							
2477	20.633	1136.51819	428.53546	245.86754	1595.21240	307.95325	528.70544							
2478	20.642	1135.56250	425.94693	248.25937	1600.89124	310.96570	541.07477							
2479	20.650	1134.27319	422.46933	250.95772	1606.14099	314.25833	552.50916							
2480	20.658	1133.38782	418.72736	253.67195	1611.69336	317.43726	563.45557							
2481	20.667	1132.06262	414.29523	256.26926	1616.72437	320.43738	572.87341							
2482	20.675	1131.21045	409.31204	259.02359	1621.22192	323.13562	581.28333							
2483	20.683	1127.74451	401.88623	268.24469	1625.24854	326.29437	588.43884							
2484	20.692	1127.41040	396.40015	271.38718	1629.22961	328.44003	594.71808							
2485	20.700	1126.33582	389.88477	276.04837	1632.56189	330.32568	600.15314							
2486	20.708	1122.99634	382.74774	282.84161	1635.84998	332.05637	604.59021							
2487	20.717	1121.51208	374.98700	289.11838	1638.32532	333.50797	607.96021							
2488	20.725	1119.57861	366.76624	296.77417	1640.74573	334.77322	610.87793							
2489	20.733	1118.55151	357.58582	305.23441	1642.48755	335.63495	613.08569							
2490	20.742	1115.89148	349.35730	314.51880	1644.00208	336.95709	615.21765							
2491	20.750	1114.09338	340.80432	324.78903	1644.61536	337.68460	615.48920							
2492	20.758	1111.57410	332.24176	336.62482	1645.39001	338.08929	616.22827							
2493	20.767	1109.07764	323.94089	349.63434	1645.58154	338.21198	616.27661							
2494	20.775	1106.48242	316.35248	363.55194	1645.46106	338.20187	615.54565							
2495	20.783	1103.84741	309.12155	378.39438	1644.68127	337.92416	614.90460							
2496	20.792	1100.84473	302.86401	393.29175	1644.23352	337.58493	614.52142							
2497	20.800	1097.68127	298.11581	411.97574	1642.80798	337.20819	613.06317							
2498	20.808	1094.90833	293.92395	428.69427	1641.15527	336.51529	611.92249							
2499	20.817	1092.16882	291.18115	444.04327	1639.78564	335.98834	611.07007							
2500	20.825	1089.52820	289.53827	459.95328	1637.62927	335.39520	609.79492							
2501	20.833	1086.69019	289.02945	476.67838	1635.34753	335.19183	608.31030							
2502	20.842	1084.04089	289.51215	492.89569	1632.56726	334.89139	606.34473							
2503	20.850	1081.37207	290.95926	508.44550	1629.82507	334.91354	604.34210							
2504	20.858	1078.79919	293.05240	523.09613	1626.71582	334.90768	601.41571							
2505	20.867	1076.28601	295.62695	537.03296	1623.69495	334.90765	597.88995							
2506	20.875	1074.16028	298.37781	549.49518	1620.13489	334.82346	593.34546							
2507	20.883	1071.16504	300.79697	564.13501	1616.59399	334.57236	587.19183							
2508	20.892	1069.61169	303.80539	573.95978	1612.78003	334.05362	579.90118							
2509	20.900	1067.99951	306.49503	582.68127	1609.41870	333.46262	571.38452							
2510	20.908	1066.72437	308.91635	589.31635	1606.39612	333.19766	561.51971							
2511	20.917	1065.68298	311.02615	595.40393	1601.64404	333.00156	548.60699							
2512	20.925	1064.80640	312.31982	599.10925	1597.93628	331.85593	535.98724							
2513	20.933	1064.25427	313.30536	601.52179	1593.21436	331.22006	521.30920							
2514	20.942	1063.81274	313.71970	602.58551	1590.14307	330.45621	506.68085							
2515	20.950	1063.47095	313.70660	602.44238	1585.88513	330.76096	490.32407							
2516	20.958	1063.23230	313.20612	601.06073	1581.72314	331.45581	473.07254							
2517	20.967	1063.28638	312.48721	598.49084	1577.43677	332.78848	455.14908							
2518	20.975	1063.46606	311.78992	595.21838	1573.53137	334.83267	438.11673							
2519	20.983	1063.69543	310.63361	590.45978	1569.31531	337.52814	420.36288							
2520	20.992	1063.95288	309.50531	584.80994	1565.21716	340.62994	402.61746							
2521	21.000	1064.66357	308.54950	578.72113	1561.11316	344.58246	385.35809							
2522	21.008	1065.25854	307.48410	571.46069	1557.48193	348.94156	369.09177							
2523	21.017	1066.14539	306.64456	563.66168	1553.88000	353.59009	353.51755							
2524	21.025	1067.01941	306.07181	555.86310	1550.09082	358.49664	338.07379							
2525	21.033	1068.79785	305.78726	545.15881	1546.34412	363.85416	323.68744							
2526	21.042	1070.42432	305.82513	535.62018	1542.79614	368.75067	309.24683							
2527	21.050	1072.38281	306.21368	524.95374	1539.23999	374.23651	297.17126							
2528	21.058	1074.69299	306.87338	513.22748	1535.92419	379.71268	285.79712							
2529	21.067	1077.30615	307.95972	500.70041	1532.53003	384.99234	274.94885							
2530	21.075	1080.03320	309.56992	488.00027	1529.28320	389.99292	264.97559							
2531	21.083	1083.07239	311.49051	473.53174	1526.27209	394.58667	256.72757							
2532	21.092	1086.60498	314.32654	459.22809	1523.23462	398.41013	248.87688							
2533	21.100	1089.90796	317.69382	444.32532	1520.19653	402.25226	242.29910							
2534	21.108	1093.41431	321.35254	428.77344	1517.97327	405.32184	237.95386							
2535	21.117	1097.22900	325.91208	413.04404	1516.05298	407.58212	234.59726							
2536	21.125	1101.02869	330.97943	397.90106	1514.28406	409.04532	232.31190							
2537	21.133	1105.53943	336.04294	380.44461	1513.09021	409.77835	231.50067							
2538	21.142	1109.40149	342.22787	365.28571	1512.25000	409.59656	231.55229							
2539	21.150	1113.16797	348.79401	350.02390	1511.90796	408.59177	232.58714							
2540	21.158	1117.78979	355.58707	335.69281	1511.92810	406.71396	234.84009							
2541	21.167	1121.66650	363.06146	321.25101	1512.23047	403.99719	237.71147							
2542	21.175	1125.61633	370.94186	307.42569	1513.01123	400.38791	241.06917							
2543	21.183	1130.07104	379.67914	293.54919	1514.26550	396.06210	245.97635							
2544	21.192	1133.15784	387.51361	281.71533	1516.18286	391.48065	251.79594							
2545	21.200	1137.63416	396.45438	268.54697	1517.73022	385.86017	257.69980							
2546	21.208	1141.52783	406.02249	254.38766	1520.70544	379.44592	265.16028							
2547	21.217	1144.75916	414.34894	245.01871	1523.07507	372.66794	272.52029							
2548	21.225	1147.19324	422.46271	235.56705	1525.42529	365.52408	280.59186							
2549	21.233	1149.07312	429.65607	227.52856	1527.49304	357.94336	288.87445							
2550	21.242	1151.22595	437.11484	220.15057	1530.71191	350.17825	299.15808							
2551	21.250	1153.12195	444.14725	213.73714	1534.45728	342.17056	310.68613							
2552	21.258	1153.83154	450.27515	208.64830	1538.00439	334.10791	322.85388							
2553	21.267	1154.23169	455.55774	204.18221	1543.05725	325.95438	337.68808							
2554	21.275	1154.37341	460.57794	200.74434	1546.22205	318.60678	350.54071							
2555	21.283	1154.07336	464.68924	198.18291	1550.46118	311.35721	365.99152							
2556	21.292	1153.21484	468.01974	196.50093	1554.81445	304.93768	382.33490							
2557	21.300	1151.94580	470.71671	195.52893	1559.58301	299.45142	399.88437							
2558	21.308	1150.22046	472.52661	195.20996	1565.14221	294.66211	419.74997							
2559	21.317	1148.67358	474.16434	195.43497	1569.58191	290.84357	439.21375							
2560	21.325	1146.53076	475.18762	196.51297	1573.43030	288.44690	456.06976							
2561	21.333	1144.48706	475.62631	197.69061	1578.00354	287.71597	475.43909							
2562	21.342	1141.84143	475.52063	199.40691	1582.99609	288.60611	495.05585							
2563	21.350	1139.22583	475.01578	201.53006	1587.28967	291.17947	514.22748							
